<svg viewBox="0 0 44 44" fill="none" xmlns="http://www.w3.org/2000/svg">
  <\!-- 背景 -->
  <rect width="44" height="44" fill="#090909"/>
  <\!-- 光線 左 -->
  <line x1="19" y1="8"  x2="7"  y2="4"  stroke="#C9A86C" stroke-width="1.5" stroke-linecap="round"/>
  <line x1="18" y1="9"  x2="5"  y2="10" stroke="#C9A86C" stroke-width="1.5" stroke-linecap="round"/>
  <line x1="18" y1="10" x2="6"  y2="16" stroke="#C9A86C" stroke-width="1.5" stroke-linecap="round"/>
  <\!-- 光線 右 -->
  <line x1="25" y1="8"  x2="37" y2="4"  stroke="#C9A86C" stroke-width="1.5" stroke-linecap="round"/>
  <line x1="26" y1="9"  x2="39" y2="10" stroke="#C9A86C" stroke-width="1.5" stroke-linecap="round"/>
  <line x1="26" y1="10" x2="38" y2="16" stroke="#C9A86C" stroke-width="1.5" stroke-linecap="round"/>
  <\!-- ランタン頂部（ドーム） -->
  <path d="M19 6 Q22 3 25 6" fill="#C9A86C"/>
  <\!-- ランタンルーム -->
  <rect x="18" y="6" width="8" height="6" rx="0.5" fill="#C9A86C"/>
  <\!-- ランタン下段プラットフォーム -->
  <rect x="16" y="12" width="12" height="2" fill="#C9A86C"/>
  <\!-- 塔本体 -->
  <path d="M18 14 L16 34 L28 34 L26 14 Z" fill="#C9A86C"/>
  <\!-- 塔の横縞 -->
  <rect x="17.5" y="18" width="9"  height="1.2" fill="#090909" opacity="0.35"/>
  <rect x="17"   y="23" width="10" height="1.2" fill="#090909" opacity="0.35"/>
  <rect x="16.5" y="28" width="11" height="1.2" fill="#090909" opacity="0.35"/>
  <\!-- 土台 -->
  <rect x="13" y="34" width="18" height="3" rx="0.5" fill="#C9A86C"/>
  <rect x="11" y="37" width="22" height="2" rx="0.5" fill="#C9A86C" opacity="0.6"/>
</svg>
